HIERARCHY
ROOT root
{
	OFFSET 0.000000 0.000000 0.000000
	CHANNELS 6 Xposition Yposition Zposition Zrotation Yrotation Xrotation
	JOINT lhip
	{
		OFFSET 0.058581 -0.082280 -0.017664
		CHANNELS 3 Zrotation Yrotation Xrotation
		JOINT lknee
		{
			OFFSET 0.043451 -0.386469 0.008037
			CHANNELS 3 Zrotation Yrotation Xrotation
			JOINT lankle
			{
				OFFSET -0.014790 -0.426874 -0.037428
				CHANNELS 3 Zrotation Yrotation Xrotation
				JOINT ltoe
				{
					OFFSET 0.041054 -0.060286 0.122042
					CHANNELS 3 Zrotation Yrotation Xrotation
					End Site
					{
						OFFSET 0.000000 0.000000 0.000000
					}
				}
			}
		}
	}
	JOINT rhip
	{
		OFFSET -0.060310 -0.090513 -0.013543
		CHANNELS 3 Zrotation Yrotation Xrotation
		JOINT rknee
		{
			OFFSET -0.043257 -0.383688 -0.004843
			CHANNELS 3 Zrotation Yrotation Xrotation
			JOINT rankle
			{
				OFFSET 0.019056 -0.420046 -0.034562
				CHANNELS 3 Zrotation Yrotation Xrotation
				JOINT rtoe
				{
					OFFSET -0.034840 -0.062106 0.130323
					CHANNELS 3 Zrotation Yrotation Xrotation
					End Site
					{
						OFFSET 0.000000 0.000000 0.000000
					}
				}
			}
		}
	}
	JOINT lowerback
	{
		OFFSET 0.004439 0.124404 -0.038385
		CHANNELS 3 Zrotation Yrotation Xrotation
		JOINT upperback
		{
			OFFSET 0.004488 0.137956 0.026820
			CHANNELS 3 Zrotation Yrotation Xrotation
			JOINT chest
			{
				OFFSET -0.002265 0.056032 0.002855
				CHANNELS 3 Zrotation Yrotation Xrotation
				JOINT lowerneck
				{
					OFFSET -0.013390 0.211636 -0.033468
					CHANNELS 3 Zrotation Yrotation Xrotation
					JOINT upperneck
					{
						OFFSET 0.010113 0.088937 0.050410
						CHANNELS 3 Zrotation Yrotation Xrotation
						End Site
						{
							OFFSET 0.000000 0.000000 0.000000
						}
					}
				}
				JOINT lclavicle
				{
					OFFSET 0.071702 0.114000 -0.018898
					CHANNELS 3 Zrotation Yrotation Xrotation
					JOINT lshoulder
					{
						OFFSET 0.122921 0.045205 -0.019046
						CHANNELS 3 Zrotation Yrotation Xrotation
						JOINT lelbow
						{
							OFFSET 0.255332 -0.015649 -0.022946
							CHANNELS 3 Zrotation Yrotation Xrotation
							JOINT lwrist
							{
								OFFSET 0.265709 0.012698 -0.007375
								CHANNELS 3 Zrotation Yrotation Xrotation
								End Site
								{
									OFFSET 0.000000 0.000000 0.000000
								}
							}
						}
					}
				}
				JOINT rclavicle
				{
					OFFSET -0.082954 0.112472 -0.023707
					CHANNELS 3 Zrotation Yrotation Xrotation
					JOINT rshoulder
					{
						OFFSET -0.113228 0.046853 -0.008472
						CHANNELS 3 Zrotation Yrotation Xrotation
						JOINT relbow
						{
							OFFSET -0.260127 -0.014369 -0.031269
							CHANNELS 3 Zrotation Yrotation Xrotation
							JOINT rwrist
							{
								OFFSET -0.269108 0.006794 -0.006027
								CHANNELS 3 Zrotation Yrotation Xrotation
								End Site
								{
									OFFSET 0.000000 0.000000 0.000000
								}
							}
						}
					}
				}
			}
		}
	}
}
MOTION
Frames: 18
Frame Time: 0.033333
-1.454918 3.021059 0.983265 30.601924 0.117612 83.282726 5.808869 6.756094 8.277004 -5.617430 4.191611 0.571114 0.121110 15.149452 -12.774025 0.000000 -0.000000 0.000000 -4.555201 -2.296360 -1.014140 1.827276 -4.444420 17.150172 2.847235 -8.080814 -12.776802 0.000000 -0.000000 0.000000 0.455259 -2.777692 4.802532 1.143615 -3.160179 9.260547 -0.965902 -0.971628 0.017881 1.571367 2.997126 -0.874524 -1.858610 1.650533 15.411141 -28.081102 2.251503 2.986084 -54.624901 -5.110681 10.925130 6.903927 -29.461940 3.467303 -3.325464 -9.766902 -4.112358 27.797611 4.229620 3.243860 51.736868 5.796258 14.012908 -8.218983 25.428707 -2.605328 3.720151 8.037178 -6.734286 
-1.455097 3.021414 0.982924 30.717211 0.175506 83.202998 5.623934 6.428428 8.010711 -5.343839 3.996404 1.036923 0.498707 15.356185 -12.667837 0.000000 -0.000000 0.000000 -4.485466 -2.332544 -1.026458 1.873121 -4.218979 17.333784 2.971434 -8.337319 -12.895711 0.000000 -0.000000 0.000000 0.667160 -2.777500 4.769295 1.091546 -3.168596 9.385368 -0.981269 -0.960154 0.165598 1.494661 2.860996 -1.150207 -1.830351 1.739072 15.546653 -28.000710 2.329673 2.769852 -54.793916 -5.242918 10.939620 6.887590 -29.312950 3.399341 -3.736307 -9.907201 -3.663247 27.753686 4.096335 3.192037 51.614905 5.811875 13.887025 -8.088301 25.291565 -2.836133 3.859465 8.128769 -6.161422 
-1.455044 3.021734 0.982335 30.747424 0.272550 83.137255 5.532200 6.126458 8.018796 -5.109121 3.743868 1.115656 0.778210 15.570488 -12.935761 0.000000 -0.000000 0.000000 -4.386970 -2.306038 -1.095409 1.875412 -4.184575 17.607359 2.948481 -8.414134 -13.019719 0.000000 -0.000000 0.000000 0.856495 -2.717537 4.630858 1.165502 -3.142094 9.655546 -0.987533 -0.943049 0.170686 1.470160 2.781338 -1.157245 -1.852040 1.705113 15.589946 -28.047565 2.364241 2.704467 -54.895846 -5.269501 10.982905 6.927372 -29.424145 3.412637 -3.917816 -9.923772 -3.471853 27.717093 4.057643 3.216146 51.401931 5.655406 13.843440 -8.041057 25.193142 -2.828323 4.045114 8.166031 -6.063501 
-1.454958 3.022123 0.981505 30.759334 0.446350 83.137122 5.610045 5.933218 8.319797 -4.955792 3.341970 0.584036 0.987298 15.684437 -13.184608 0.000000 -0.000000 0.000000 -4.233141 -2.240395 -1.210441 1.909650 -4.209871 17.852396 2.962580 -8.467353 -13.138097 0.000000 -0.000000 0.000000 1.014783 -2.729571 4.495038 1.308047 -3.018962 9.825301 -0.913342 -0.919478 0.162971 1.497847 2.670026 -1.157360 -1.870667 1.711822 15.710792 -28.137159 2.507811 2.728429 -54.969685 -5.151381 11.029451 6.977563 -29.897922 3.507090 -3.891163 -9.921442 -3.363028 27.688408 3.993691 3.249123 51.097500 5.459942 13.819280 -7.959533 24.997008 -2.716222 4.125960 8.172892 -5.993926 
-1.454969 3.022467 0.981235 30.785356 0.508162 83.172354 5.648047 5.927845 8.524577 -4.917245 3.148881 0.085683 1.055800 15.677861 -13.089965 0.000000 -0.000000 0.000000 -4.193013 -2.253036 -1.291345 1.923057 -4.236141 17.911893 3.006381 -8.461567 -13.137341 0.000000 -0.000000 0.000000 1.001781 -2.740454 4.471637 1.396360 -2.961090 9.847592 -0.831381 -0.907064 0.133919 1.546852 2.597736 -1.154089 -1.865903 1.741746 15.811037 -28.166946 2.627054 2.714052 -54.999569 -5.068525 11.106073 6.952816 -30.114056 3.617565 -3.789635 -9.985784 -3.319977 27.726531 3.926514 3.249996 50.918149 5.420529 13.832698 -7.897398 24.746875 -2.653262 4.064178 8.144647 -5.860928 
-1.455048 3.023088 0.981344 30.854356 0.541797 83.252641 5.615291 6.015355 8.804669 -4.822362 3.015895 -0.746811 1.063304 15.578392 -12.716778 0.000000 -0.000000 0.000000 -4.152881 -2.280683 -1.388179 1.884908 -4.286657 17.847689 3.093906 -8.484726 -13.029816 0.000000 -0.000000 0.000000 0.941958 -2.758530 4.431962 1.463456 -2.915936 9.828252 -0.738267 -0.904829 0.146298 1.564374 2.706964 -1.195797 -1.833583 1.850372 15.831647 -28.084035 2.726240 2.670897 -55.096043 -5.044464 11.208792 6.891634 -30.130982 3.768929 -3.768212 -10.053521 -3.238747 27.772462 3.869161 3.199492 50.807309 5.456593 13.875684 -7.803483 24.236936 -2.541515 4.126889 8.066083 -5.684386 
-1.455058 3.023774 0.981541 30.961577 0.573811 83.370469 5.575258 6.163944 9.091441 -4.740519 2.903427 -1.702594 1.055757 15.431174 -12.267528 0.000000 -0.000000 0.000000 -4.118676 -2.325882 -1.487652 1.841605 -4.378220 17.717697 3.157946 -8.480517 -12.902284 0.000000 -0.000000 0.000000 0.925646 -2.802870 4.289384 1.502906 -2.914133 9.859931 -0.687669 -0.903238 0.146519 1.593936 2.666692 -1.033029 -1.835769 1.787113 15.806842 -27.903385 2.734422 2.739371 -55.215526 -5.059865 11.287670 6.819735 -30.027975 3.898017 -3.880834 -10.091608 -3.124570 27.679811 3.887902 3.204623 50.901661 5.444646 13.905390 -7.776762 23.876367 -2.449638 4.190891 8.007130 -5.591842 
-1.455015 3.024562 0.981584 31.064777 0.610007 83.497700 5.563217 6.303516 9.264019 -4.701776 2.739708 -2.452241 1.044395 15.326294 -11.925843 0.000000 -0.000000 0.000000 -4.104655 -2.410815 -1.597563 1.835732 -4.417205 17.589030 3.220130 -8.495229 -12.780118 0.000000 -0.000000 0.000000 0.959385 -2.856044 4.176272 1.513734 -2.915961 9.881976 -0.683005 -0.893854 0.150013 1.514436 2.832898 -1.222217 -1.859011 1.912121 15.894869 -27.826036 2.739737 2.729035 -55.110160 -5.035216 11.397086 6.572481 -30.002710 4.192973 -3.839274 -10.097809 -3.040607 27.679780 3.848401 3.178137 50.848508 5.365471 13.989047 -7.590633 23.882642 -2.277781 4.200962 7.973862 -5.558327 
-1.455005 3.025358 0.981561 31.140685 0.648184 83.559352 5.585208 6.383968 9.383738 -4.713261 2.594391 -2.907905 1.055859 15.260678 -11.751466 0.000000 -0.000000 0.000000 -4.085650 -2.491221 -1.683657 1.823035 -4.442388 17.554796 3.226083 -8.512331 -12.722622 0.000000 -0.000000 0.000000 0.991393 -2.882011 4.242635 1.538949 -2.919076 9.786744 -0.662296 -0.908770 0.113419 1.457877 2.640114 -1.181828 -1.895483 1.879874 15.977781 -27.866412 2.704783 2.732839 -54.842911 -4.875269 11.555625 6.307601 -30.101737 4.519027 -3.793285 -10.090344 -2.945911 27.644392 3.807199 3.160188 50.689923 5.119180 14.201116 -7.185172 24.314850 -1.750653 4.317280 7.987435 -5.540049 
-1.455001 3.026062 0.981539 31.203630 0.665991 83.604033 5.618328 6.411401 9.474622 -4.768554 2.443903 -3.265970 1.066239 15.220003 -11.603744 0.000000 -0.000000 0.000000 -4.068627 -2.514511 -1.766320 1.796299 -4.458029 17.556853 3.282090 -8.588739 -12.642908 0.000000 -0.000000 0.000000 0.980478 -2.876553 4.247690 1.564635 -2.917243 9.778426 -0.632325 -0.928937 0.120292 1.356565 2.463860 -1.185518 -1.963872 1.833666 15.996259 -27.879743 2.632933 2.659999 -54.570575 -4.698298 11.672701 5.981661 -30.132976 4.880861 -3.897868 -10.075384 -2.780431 27.552355 3.765674 3.182397 50.408755 4.755794 14.588470 -6.440947 25.330528 -0.552579 4.483919 8.096412 -5.140342 
-1.454923 3.026432 0.981484 31.215500 0.677929 83.593959 5.631388 6.465414 9.620056 -4.777222 2.385101 -3.578210 1.063899 15.176836 -11.468151 0.000000 -0.000000 0.000000 -4.067728 -2.523431 -1.775034 1.784168 -4.485835 17.548587 3.313653 -8.605678 -12.598046 0.000000 -0.000000 0.000000 0.966327 -2.861948 4.203517 1.583531 -2.909974 9.907557 -0.621253 -0.939075 0.128899 1.244609 2.509431 -1.263877 -2.021909 1.833174 15.936801 -27.897413 2.584323 2.556352 -54.421561 -4.560065 11.655060 5.859043 -30.180318 4.939282 -4.123085 -10.067002 -2.624744 27.530008 3.762250 3.220564 50.169917 4.477765 14.836203 -5.975600 26.216936 0.313794 4.738236 8.250539 -4.574789 
-1.454850 3.026525 0.981382 31.116347 0.696800 83.566332 5.653564 6.631636 9.893195 -4.759040 2.402546 -4.057387 1.056424 15.128578 -11.257980 0.000000 -0.000000 0.000000 -4.059039 -2.540250 -1.749362 1.785538 -4.488092 17.495751 3.359170 -8.553344 -12.533889 0.000000 -0.000000 0.000000 0.980217 -2.865667 4.184247 1.570772 -2.859005 9.949062 -0.642960 -0.895407 0.139643 1.124258 2.699829 -1.319723 -2.059169 1.998995 15.945440 -27.919826 2.669714 2.468863 -54.246977 -4.426485 11.640828 5.670155 -30.194520 5.225891 -4.250371 -10.089021 -2.498870 27.556972 3.695727 3.248170 50.017486 4.325217 14.993684 -5.636150 26.805124 0.843920 4.838131 8.359578 -4.304835 
-1.454817 3.026380 0.981240 30.909896 0.740515 83.508697 5.687913 6.834069 10.229721 -4.701847 2.484105 -4.563172 1.049895 15.101361 -11.049839 0.000000 -0.000000 0.000000 -4.015292 -2.561025 -1.697590 1.789476 -4.430846 17.407293 3.416542 -8.449580 -12.455350 0.000000 -0.000000 0.000000 1.004644 -2.885173 4.197698 1.552650 -2.801296 9.910910 -0.661470 -0.823484 0.161698 1.002677 2.979836 -1.369634 -2.091438 2.303177 16.093496 -27.910569 2.792959 2.419993 -54.111675 -4.273169 11.677177 5.431392 -30.127650 5.699731 -4.359808 -10.160442 -2.319869 27.586547 3.632177 3.271100 49.951740 4.317474 15.056527 -5.448608 27.042104 1.056903 4.800121 8.418172 -4.241049 
-1.454843 3.025980 0.981024 30.640074 0.799814 83.401798 5.768690 6.971849 10.512868 -4.669225 2.603186 -4.822105 1.038873 15.128118 -10.959434 0.000000 -0.000000 0.000000 -3.945215 -2.570394 -1.618113 1.799548 -4.335750 17.382333 3.463413 -8.338933 -12.417630 0.000000 -0.000000 0.000000 0.986260 -2.885853 4.222867 1.572582 -2.743108 9.854645 -0.632925 -0.754507 0.229036 1.000708 2.977529 -1.244465 -2.208757 2.369500 16.306776 -27.863874 2.908820 2.435705 -54.080105 -4.158779 11.727242 5.185233 -30.192865 6.091501 -4.399140 -10.148288 -2.255929 27.535114 3.564715 3.260943 49.996129 4.404108 15.077772 -5.377675 27.044883 1.119897 4.763630 8.398722 -4.336447 
-1.454853 3.025264 0.980838 30.333744 0.847061 83.305311 5.860166 7.010492 10.667697 -4.667101 2.735614 -4.795879 1.050029 15.222974 -11.029494 0.000000 -0.000000 0.000000 -3.876249 -2.531405 -1.540850 1.822786 -4.233457 17.391390 3.489528 -8.239256 -12.429698 0.000000 -0.000000 0.000000 0.940573 -2.890786 4.167656 1.591772 -2.719925 9.837586 -0.616837 -0.733257 0.275751 1.081577 2.902356 -1.062463 -2.333448 2.369432 16.559603 -27.802123 3.042083 2.508496 -54.109529 -4.041420 11.751801 5.004140 -30.109250 6.371389 -4.414650 -10.161640 -2.276513 27.504237 3.505675 3.255127 50.077699 4.527555 15.090649 -5.333959 26.910017 1.123078 4.685858 8.388916 -4.423991 
-1.454848 3.024288 0.980768 30.034426 0.888768 83.250960 5.937349 7.004901 10.710154 -4.661944 2.855192 -4.619459 1.065453 15.360126 -11.180379 0.000000 -0.000000 0.000000 -3.798074 -2.454624 -1.509497 1.857154 -4.115511 17.424059 3.499122 -8.183780 -12.465195 0.000000 -0.000000 0.000000 0.871049 -2.901309 4.002015 1.603793 -2.718406 9.899426 -0.607724 -0.763890 0.310777 1.160884 2.959233 -1.069603 -2.424923 2.481205 16.799072 -27.810718 3.160879 2.573844 -54.086616 -3.891465 11.763394 4.872091 -30.010692 6.585978 -4.440086 -10.180409 -2.265396 27.532602 3.447316 3.224902 50.099486 4.654086 15.095505 -5.258222 26.758332 1.167174 4.683751 8.340543 -4.443723 
-1.454804 3.023394 0.980715 29.780597 0.937296 83.224632 6.009628 7.010280 10.718264 -4.644323 2.937831 -4.446667 1.068163 15.487633 -11.316708 0.000000 -0.000000 0.000000 -3.719301 -2.401616 -1.492440 1.898848 -3.992102 17.440384 3.507114 -8.156964 -12.511507 0.000000 -0.000000 0.000000 0.825820 -2.925561 3.895602 1.606405 -2.733107 9.863084 -0.617401 -0.787047 0.312077 1.233720 3.021252 -1.142247 -2.471872 2.623268 17.030498 -27.829263 3.285664 2.547777 -54.066265 -3.712427 11.833940 4.703023 -29.786315 6.835822 -4.362638 -10.147562 -2.175546 27.571286 3.311301 3.168963 50.105925 4.719607 15.107253 -5.165023 26.675632 1.226286 4.524994 8.327053 -4.350200 
-1.454732 3.022693 0.980681 29.567213 0.985677 83.220997 6.072916 7.036857 10.731854 -4.616760 3.014408 -4.324232 1.067693 15.588842 -11.405615 0.000000 -0.000000 0.000000 -3.667144 -2.374547 -1.449933 1.954000 -3.903901 17.395267 3.521491 -8.104218 -12.517420 0.000000 -0.000000 0.000000 0.823059 -2.939927 3.825068 1.585718 -2.762774 9.812707 -0.627415 -0.844569 0.280309 1.245581 3.069128 -1.237629 -2.457071 2.735111 17.119612 -27.838487 3.233372 2.534010 -54.144360 -3.503240 11.876155 4.743149 -29.431939 6.906874 -4.453508 -10.185465 -2.028690 27.550345 3.255138 3.161951 50.166730 4.661467 15.096375 -5.131470 26.700947 1.313477 4.506272 8.357910 -4.326363 
